<?xml version="1.0" encoding="UTF-8"?>
<svg version="1.1" xmlns="http://www.w3.org/2000/svg" width="50" height="50">
<path d="M0 0 C9 0 9 0 12.109375 3.03515625 C13.02043842 4.3568584 13.90024046 5.70057421 14.75 7.0625 C15.19214844 7.71927734 15.63429688 8.37605469 16.08984375 9.05273438 C16.92917993 10.30189305 17.7562394 11.55947446 18.56542969 12.82836914 C20.6238766 15.94441497 22.82933055 18.96106278 25 22 C25.33 14.74 25.66 7.48 26 0 C29.3 0 32.6 0 36 0 C36 14.52 36 29.04 36 44 C27 44 27 44 24.83251953 42.41113281 C24.35411621 41.68249023 23.87571289 40.95384766 23.3828125 40.203125 C22.83882812 39.4090625 22.29484375 38.615 21.734375 37.796875 C21.20328125 36.95640625 20.6721875 36.1159375 20.125 35.25 C19.57070313 34.425 19.01640625 33.6 18.4453125 32.75 C17.41307202 31.21156467 16.39343117 29.66454111 15.39111328 28.10644531 C14.00949502 26.01437751 12.50426793 24.00569057 11 22 C10.67 29.26 10.34 36.52 10 44 C6.7 44 3.4 44 0 44 C0 29.48 0 14.96 0 0 Z M2 2 C2 15.2 2 28.4 2 42 C3.98 42 5.96 42 8 42 C8 33.09 8 24.18 8 15 C12.49686598 17.24843299 12.49686598 17.24843299 14.55078125 20.37890625 C14.9986499 21.04921875 15.44651855 21.71953125 15.90795898 22.41015625 C16.37145752 23.12042969 16.83495605 23.83070312 17.3125 24.5625 C18.28736675 26.01286 19.26392412 27.4620851 20.2421875 28.91015625 C20.71366211 29.61156738 21.18513672 30.31297852 21.67089844 31.03564453 C23.37926787 33.56054175 25.12531766 36.04845462 26.9375 38.5 C27.44152344 39.1909375 27.94554688 39.881875 28.46484375 40.59375 C30.14461105 42.45031313 30.14461105 42.45031313 34 42 C34 28.8 34 15.6 34 2 C32.02 2 30.04 2 28 2 C28 10.91 28 19.82 28 29 C23.50313402 26.75156701 23.50313402 26.75156701 21.44921875 23.62109375 C21.0013501 22.95078125 20.55348145 22.28046875 20.09204102 21.58984375 C19.62854248 20.87957031 19.16504395 20.16929688 18.6875 19.4375 C17.71263325 17.98714 16.73607588 16.5379149 15.7578125 15.08984375 C15.28633789 14.38843262 14.81486328 13.68702148 14.32910156 12.96435547 C12.62073213 10.43945825 10.87468234 7.95154538 9.0625 5.5 C8.55847656 4.8090625 8.05445313 4.118125 7.53515625 3.40625 C5.85538895 1.54968687 5.85538895 1.54968687 2 2 Z " fill="#191919" transform="translate(7,3)"/>
</svg>
