<?xml version="1.0" encoding="UTF-8"?>
<svg version="1.1" xmlns="http://www.w3.org/2000/svg" width="50" height="50">
<path d="M0 0 C9 0 9 0 11.47460938 2.07958984 C12.09142578 3.03043457 12.70824219 3.9812793 13.34375 4.9609375 C14.03210937 5.98960938 14.72046875 7.01828125 15.4296875 8.078125 C16.11289062 9.16609375 16.79609375 10.2540625 17.5 11.375 C18.21414062 12.45523437 18.92828125 13.53546875 19.6640625 14.6484375 C24.50725446 22.01450893 24.50725446 22.01450893 26 25 C26.33 16.75 26.66 8.5 27 0 C29.97 0 32.94 0 36 0 C36 14.52 36 29.04 36 44 C27 44 27 44 24.52539062 41.92041016 C23.90857422 40.96956543 23.29175781 40.0187207 22.65625 39.0390625 C21.96789062 38.01039062 21.27953125 36.98171875 20.5703125 35.921875 C19.88710938 34.83390625 19.20390625 33.7459375 18.5 32.625 C17.78585938 31.54476562 17.07171875 30.46453125 16.3359375 29.3515625 C11.49274554 21.98549107 11.49274554 21.98549107 10 19 C9.67 27.25 9.34 35.5 9 44 C6.03 44 3.06 44 0 44 C0 29.48 0 14.96 0 0 Z " fill="#FFFFFF" transform="translate(7,3)"/>
</svg>
